<svg id="页面-1" xmlns="http://www.w3.org/2000/svg" xmlns:xlink="http://www.w3.org/1999/xlink" width="16" height="16" viewBox="0 0 16 16">
  <defs>
    <linearGradient id="linear-gradient" x1="0.5" x2="0.5" y2="1" gradientUnits="objectBoundingBox">
      <stop offset="0" stop-color="#54adff"/>
      <stop offset="1" stop-color="#1786ec"/>
    </linearGradient>
  </defs>
  <path id="形状结合" d="M14.1,0A1.9,1.9,0,0,1,16,1.895V14.1A1.9,1.9,0,0,1,14.1,16H1.895A1.9,1.9,0,0,1,0,14.1V1.895A1.9,1.9,0,0,1,1.895,0ZM11.839,10.146a1.6,1.6,0,1,0,1.493,1.593A1.547,1.547,0,0,0,11.839,10.146Zm-7.472-.009a1.6,1.6,0,0,0,0,3.188,1.6,1.6,0,0,0,0-3.188Zm3.611-.043a1.6,1.6,0,0,0,0,3.184,1.6,1.6,0,0,0,0-3.184Zm0-7.222A1.547,1.547,0,0,0,6.485,4.465,1.575,1.575,0,0,0,7.646,6.02h0V7.281H4.8A1,1,0,0,0,3.82,8.305h0V9.4H4.54v-1.1A.3.3,0,0,1,4.8,7.987H7.646V9.4h.719V7.987h2.852a.3.3,0,0,1,.262.318h0V9.4H12.2v-1.1a1,1,0,0,0-.981-1.024H8.366V6A1.582,1.582,0,0,0,9.472,4.466,1.547,1.547,0,0,0,7.978,2.872Z" fill="url(#linear-gradient)"/>
</svg>
