<?xml version="1.0" encoding="utf-8"?>
<!-- Generator: Adobe Illustrator 25.0.0, SVG Export Plug-In . SVG Version: 6.00 Build 0)  -->
<svg version="1.1" id="图层_1" xmlns="http://www.w3.org/2000/svg" xmlns:xlink="http://www.w3.org/1999/xlink" x="0px" y="0px"
	 viewBox="0 0 16 16" style="enable-background:new 0 0 16 16;" xml:space="preserve">
<style type="text/css">
	.st0{fill-rule:evenodd;clip-rule:evenodd;fill:#FFFFFF;fill-opacity:0;}
	.st1{fill:url(#SVGID_1_);}
	.st2{fill:url(#SVGID_2_);}
	.st3{fill:#FFFFFF;fill-opacity:0;}
	.st4{fill:url(#Shape_2_);}
	.st5{fill:url(#Shape_3_);}
</style>
<rect id="矩形" class="st0" width="16" height="16"/>
<g>
	<linearGradient id="SVGID_1_" gradientUnits="userSpaceOnUse" x1="1" y1="8.5" x2="11" y2="8.5">
		<stop  offset="0" style="stop-color:#54ADFF"/>
		<stop  offset="1" style="stop-color:#3297FF"/>
	</linearGradient>
	<path class="st1" d="M9,2H3C1.9,2,1,2.9,1,4v11h10V4C11,2.9,10.1,2,9,2z M5.5,12.5H3.8v-1h1.7V12.5z M8.2,12.5H6.5v-1h1.7V12.5z
		 M7.4,7.5l0.3,2L6,8.5L4.2,9.4l0.3-2L3.1,6.1l2-0.3L6,4l0.9,1.8l2,0.3L7.4,7.5z"/>
	<linearGradient id="SVGID_2_" gradientUnits="userSpaceOnUse" x1="12.2" y1="10.5" x2="15" y2="10.5">
		<stop  offset="0" style="stop-color:#54ADFF"/>
		<stop  offset="1" style="stop-color:#3297FF"/>
	</linearGradient>
	<path class="st2" d="M14,6h-1.8v9H15V7C15,6.4,14.6,6,14,6z"/>
</g>
<g>
	<rect x="22.5" y="-0.4" class="st3" width="16" height="16"/>
	<g id="页面-1">
		<g id="右侧选择栏样式_x2B_下属组织选中校领导后标签内容" transform="translate(-512.000000, -529.000000)">
			<g id="编组-8" transform="translate(424.000000, 274.000000)">
				<g id="编组-10" transform="translate(-0.000000, 8.000000)">
					<g id="部门_x2F_组icon_x2F_person备份-2" transform="translate(87.000000, 246.000000)">
						
							<linearGradient id="Shape_2_" gradientUnits="userSpaceOnUse" x1="-568.7818" y1="-28.0721" x2="-568.1684" y2="-28.8806" gradientTransform="matrix(7.5385 0 0 -7.5385 4316.6289 -209.7026)">
							<stop  offset="0" style="stop-color:#54ADFF"/>
							<stop  offset="1" style="stop-color:#3297FF"/>
						</linearGradient>
						<path id="Shape" class="st4" d="M31.5,9.1c2.1,0,3.8-1.7,3.8-3.8s-1.7-3.7-3.8-3.7s-3.8,1.7-3.8,3.8S29.4,9.1,31.5,9.1
							L31.5,9.1z"/>
						
							<linearGradient id="Shape_3_" gradientUnits="userSpaceOnUse" x1="-610.7574" y1="-63.7065" x2="-610.1439" y2="-63.8261" gradientTransform="matrix(14 0 0 -5.3846 8578 -330.3037)">
							<stop  offset="0" style="stop-color:#54ADFF"/>
							<stop  offset="1" style="stop-color:#3297FF"/>
						</linearGradient>
						<path id="Shape_1_" class="st5" d="M25,15.6h13c0.3,0,0.5-0.2,0.5-0.5c0-2.7-2.1-4.9-4.7-4.9h-4.6c-2.6,0-4.7,2.2-4.7,4.9
							C24.5,15.4,24.7,15.6,25,15.6L25,15.6z"/>
					</g>
				</g>
			</g>
		</g>
	</g>
</g>
</svg>
