<svg id="组icon_copy" data-name="组icon copy" xmlns="http://www.w3.org/2000/svg" width="12.252" height="10.5" viewBox="0 0 12.252 10.5">
  <g id="编组_7备份" data-name="编组 7备份" transform="translate(0)">
    <path id="形状结合" d="M0,1.686H0V1.294A1.432,1.432,0,0,1,1.509,0H5.674a.871.871,0,0,1,.615.252l1.34,1.323H0Z" transform="translate(0)" fill="#fff"/>
    <path id="矩形" d="M0,0H10.25a2,2,0,0,1,2,2V5.875a2,2,0,0,1-2,2H2a2,2,0,0,1-2-2V0A0,0,0,0,1,0,0Z" transform="translate(0.002 2.625)" fill="#fff"/>
  </g>
</svg>
