<?xml version="1.0" encoding="utf-8"?>
<!-- Generator: Adobe Illustrator 22.0.0, SVG Export Plug-In . SVG Version: 6.00 Build 0)  -->
<svg version="1.1" id="图层_1" xmlns="http://www.w3.org/2000/svg" xmlns:xlink="http://www.w3.org/1999/xlink" x="0px" y="0px"
	 viewBox="0 0 155 160" style="enable-background:new 0 0 155 160;" xml:space="preserve">
<style type="text/css">
	.st0{fill:#ECF5FF;}
	.st1{fill:#95B3D6;}
	.st2{fill:#FEFFFE;}
</style>
<title>分组</title>
<desc>Created with Sketch.</desc>
<g id="页面-1">
	<g id="无任何人员备份" transform="translate(-297.000000, -530.000000)">
		<g id="分组" transform="translate(297.000000, 531.000000)">
			<g id="分组-9-copy-4" transform="translate(4.000000, 0.000000)">
				<g id="路径">
					<path class="st0" d="M0,41.6V8c0-4.4,3.6-8,8-8l0,0h114c4.4,0,8,3.6,8,8v142c0,4.4-3.6,8-8,8H8c-4.4,0-8-3.6-8-8v-29.1"/>
					<path class="st1" d="M122,159H8c-5,0-9-4-9-9v-29.1h2V150c0,3.9,3.1,7,7,7h114c3.9,0,7-3.1,7-7V8c0-3.9-3.1-7-7-7H8
						C4.1,1,1,4.1,1,8v33.6h-2V8c0-5,4-9,9-9h114c5,0,9,4,9,9v142C131,155,127,159,122,159z"/>
				</g>
				<g id="矩形">
					<path class="st2" d="M14.8,9.8h101.4c2.2,0,4,1.8,4,4v130.4c0,2.2-1.8,4-4,4H14.8c-2.2,0-4-1.8-4-4V13.8
						C10.8,11.6,12.6,9.8,14.8,9.8z"/>
					<path class="st1" d="M116.2,149H14.8c-2.6,0-4.8-2.2-4.8-4.8V13.8c0-2.6,2.2-4.8,4.8-4.8h101.4c2.6,0,4.8,2.2,4.8,4.8v130.4
						C121,146.8,118.8,149,116.2,149z M14.8,10.6c-1.8,0-3.2,1.4-3.2,3.2v130.4c0,1.8,1.4,3.2,3.2,3.2h101.4c1.8,0,3.2-1.4,3.2-3.2
						V13.8c0-1.8-1.4-3.2-3.2-3.2H14.8z"/>
				</g>
			</g>
			<g id="路径_1_">
				<path class="st0" d="M95,75.7l-13.3-5.2c0,0-2.5-1-3.5-1.9c-0.6-0.6-0.6-2.1,0-4c0.6-1.9,7.4-9.5,7.4-16.4
					c0-10.7-7-19.3-15.7-19.3s-15.7,8.6-15.7,19.3c0,6.6,6.1,14.5,6.8,15.9c0.7,1.4,0.6,3.6,0,4.3c-0.9,1-4.1,2-4.1,2l-12,5.3
					c-2.8,1-5,3.6-5,6.6v1.4c0,3.2,2.6,5.2,5.9,5.2h48.3c3.2,0,5.9-2,5.9-5.2v-1.4C100,79.5,97.8,76.7,95,75.7z"/>
				<path class="st1" d="M93.6,90.1h-4v-2h4V90.1z M87.6,90.1h-4v-2h4V90.1z M81.6,90.1h-4v-2h4V90.1z M75.6,90.1h-4v-2h4V90.1z
					 M69.6,90.1h-4v-2h4V90.1z M63.6,90.1h-4v-2h4V90.1z M57.6,90.1h-4v-2h4V90.1z M51.6,90.1h-4v-2h4V90.1z M45.5,90.1
					c-1.7-0.1-3.1-0.6-4.3-1.5l1.2-1.6c0.8,0.6,1.9,1,3.1,1.1L45.5,90.1z M95.8,89.9l-0.4-2c1.2-0.2,2.2-0.8,2.8-1.6l1.6,1.2
					C98.8,88.8,97.4,89.6,95.8,89.9z M39.7,86.7c-0.5-0.9-0.7-1.8-0.7-2.9v-1.4l1-0.1l1,0.1v1.4c0,0.7,0.2,1.4,0.5,1.9L39.7,86.7z
					 M100.8,85.4l-1.9-0.5c0.1-0.3,0.1-0.7,0.1-1.1v-1.4c0-0.3,0-0.7-0.1-1l2-0.4c0.1,0.5,0.1,0.9,0.1,1.4v1.4
					C101,84.4,100.9,84.9,100.8,85.4z M41.3,80.7l-1.9-0.7c0.5-1.4,1.4-2.7,2.6-3.7l1.3,1.5C42.3,78.7,41.7,79.7,41.3,80.7z
					 M98.3,79.8c-0.5-1-1.4-1.9-2.4-2.5l1.1-1.7c1.3,0.8,2.4,1.9,3.1,3.3L98.3,79.8z M44.7,77l-0.8-1.8c0.2-0.1,0.5-0.2,0.7-0.3
					l2.9-1.3l0.8,1.8l-3,1.3C45.1,76.8,44.9,76.9,44.7,77z M94.7,76.7l-3.7-1.5l0.7-1.9l3.7,1.5L94.7,76.7z M50.2,74.6l-0.8-1.8
					l3.7-1.6l0.8,1.8L50.2,74.6z M89.1,74.5L85.3,73l0.7-1.9l3.7,1.5L89.1,74.5z M83.5,72.3l-2.1-0.8c0,0-0.8-0.3-1.7-0.8l0.9-1.8
					c0.8,0.4,1.5,0.7,1.5,0.7l2.1,0.8L83.5,72.3z M55.7,72.1l-0.8-1.8l2.2-1l0.1,0c0.4-0.1,0.9-0.3,1.5-0.6l0.8,1.8
					c-1.1,0.5-1.7,0.7-2.1,0.8L55.7,72.1z M61.4,69.6L60.1,68c0.1,0,0.1-0.1,0.2-0.1c0.1-0.1,0.3-0.6,0.3-1.4c0-0.4-0.1-0.8-0.1-1.2
					l1.9-0.5c0.1,0.5,0.2,1.1,0.2,1.7c0,0.6-0.1,1.9-0.8,2.7C61.7,69.3,61.5,69.4,61.4,69.6z M77.8,69.6c-0.1-0.1-0.2-0.2-0.2-0.2
					c-0.5-0.5-0.8-1.2-0.8-2.2c0-0.7,0.1-1.5,0.4-2.4l1.9,0.5c-0.2,0.7-0.3,1.4-0.3,1.8c0,0.5,0.1,0.7,0.2,0.8c0,0,0.1,0.1,0.1,0.1
					L77.8,69.6z M59.6,63.8l-0.2-0.3c-0.5-0.8-1.2-1.9-2-3.1l1.7-1c0.7,1.2,1.4,2.3,1.9,3l0.2,0.3L59.6,63.8z M79.8,63.8l-1.7-1.1
					c0.2-0.4,0.5-0.8,0.9-1.3c0.4-0.6,0.9-1.3,1.3-2l1.7,1.1c-0.5,0.8-0.9,1.4-1.3,2.1C80.4,63,80.1,63.4,79.8,63.8z M83.1,58.7
					l-1.7-1c0.7-1.2,1.3-2.4,1.8-3.5L85,55C84.5,56.2,83.9,57.4,83.1,58.7z M56.5,58.6c-0.7-1.3-1.3-2.6-1.8-3.7l1.9-0.7
					c0.4,1.1,1,2.3,1.7,3.5L56.5,58.6z M85.7,53.1l-1.9-0.6c0.4-1.3,0.7-2.5,0.7-3.6l2,0.1C86.5,50.2,86.2,51.6,85.7,53.1z M54,52.9
					c-0.5-1.5-0.7-2.9-0.7-4.2l2-0.1c0,1.1,0.3,2.3,0.7,3.7L54,52.9z M84.5,46.9c-0.1-1.3-0.3-2.6-0.6-3.8l1.9-0.5
					c0.3,1.3,0.5,2.7,0.6,4.1L84.5,46.9z M55.3,46.8l-2-0.1c0.1-1.4,0.3-2.8,0.6-4.1l1.9,0.5C55.6,44.2,55.4,45.5,55.3,46.8z
					 M83.5,41.3c-0.4-1.2-0.9-2.4-1.5-3.5l1.7-1c0.7,1.2,1.2,2.5,1.7,3.8L83.5,41.3z M56.4,41.2l-1.9-0.6c0.5-1.3,1-2.6,1.7-3.8
					l1.7,1C57.4,38.8,56.9,39.9,56.4,41.2z M80.9,36.2c-0.7-1.1-1.6-2-2.5-2.8l1.3-1.5c1,0.9,2,2,2.8,3.2L80.9,36.2z M59,36.1
					l-1.6-1.2c0.8-1.2,1.8-2.2,2.8-3.1l1.3,1.5C60.6,34.1,59.8,35,59,36.1z M76.9,32.2c-1-0.7-2.2-1.3-3.3-1.6l0.6-1.9
					c1.3,0.4,2.6,1.1,3.8,1.9L76.9,32.2z M63,32.2l-1.1-1.7c1.2-0.8,2.5-1.4,3.8-1.9l0.6,1.9C65.2,30.9,64.1,31.5,63,32.2z
					 M71.8,30.2c-1.2-0.2-2.5-0.2-3.7,0l-0.3-2c1.4-0.2,2.9-0.2,4.3,0L71.8,30.2z"/>
			</g>
			<g id="分组-2" transform="translate(27.000000, 104.000000)">
				<g id="矩形_1_">
					<path class="st0" d="M13.5,0h68C82.9,0,84,1.1,84,2.5l0,0C84,3.9,82.9,5,81.5,5h-68C12.1,5,11,3.9,11,2.5l0,0
						C11,1.1,12.1,0,13.5,0z"/>
				</g>
				<g id="矩形-copy-4">
					<path class="st0" d="M13.5,13h68c1.4,0,2.5,1.1,2.5,2.5l0,0c0,1.4-1.1,2.5-2.5,2.5h-68c-1.4,0-2.5-1.1-2.5-2.5l0,0
						C11,14.1,12.1,13,13.5,13z"/>
				</g>
				<g id="矩形_2_">
					<path class="st1" d="M102.8,20.8L102.8,20.8c1-1,2.6-1,3.5,0l20.5,20.5c1,1,1,2.6,0,3.5l0,0c-1,1-2.6,1-3.5,0l-20.5-20.5
						C101.8,23.3,101.8,21.7,102.8,20.8z"/>
				</g>
				<g id="椭圆形">
					<circle class="st0" cx="2.5" cy="2.5" r="2.5"/>
				</g>
				<g id="椭圆形-copy">
					<circle class="st0" cx="2.5" cy="15.5" r="2.5"/>
				</g>
				<g id="矩形-copy-6">
					<path class="st0" d="M13.5,26h68c1.4,0,2.5,1.1,2.5,2.5l0,0c0,1.4-1.1,2.5-2.5,2.5h-68c-1.4,0-2.5-1.1-2.5-2.5l0,0
						C11,27.1,12.1,26,13.5,26z"/>
				</g>
				<g id="椭圆形-copy-2">
					<circle class="st0" cx="2.5" cy="28.5" r="2.5"/>
				</g>
			</g>
			<g id="分组-8" transform="translate(97.000000, 88.000000)">
				<g id="椭圆形_1_">
					<circle class="st2" cx="25" cy="25" r="25"/>
					<path class="st1" d="M25,51C10.7,51-1,39.3-1,25S10.7-1,25-1s26,11.7,26,26S39.3,51,25,51z M25,1C11.8,1,1,11.8,1,25
						s10.8,24,24,24s24-10.8,24-24S38.2,1,25,1z"/>
				</g>
			</g>
			<g id="矩形_3_">
				<path class="st1" d="M2.5,49h9c1.4,0,2.5,1.1,2.5,2.5l0,0c0,1.4-1.1,2.5-2.5,2.5h-9C1.1,54,0,52.9,0,51.5l0,0
					C0,50.1,1.1,49,2.5,49z"/>
			</g>
			<g id="矩形-copy">
				<path class="st1" d="M2.5,69h7c1.4,0,2.5,1.1,2.5,2.5l0,0c0,1.4-1.1,2.5-2.5,2.5h-7C1.1,74,0,72.9,0,71.5l0,0
					C0,70.1,1.1,69,2.5,69z"/>
			</g>
			<g id="矩形-copy-2">
				<path class="st1" d="M2.5,89h5c1.4,0,2.5,1.1,2.5,2.5l0,0c0,1.4-1.1,2.5-2.5,2.5h-5C1.1,94,0,92.9,0,91.5l0,0
					C0,90.1,1.1,89,2.5,89z"/>
			</g>
			<g id="矩形-copy-3">
				<path class="st1" d="M2.5,109h3c1.4,0,2.5,1.1,2.5,2.5l0,0c0,1.4-1.1,2.5-2.5,2.5h-3c-1.4,0-2.5-1.1-2.5-2.5l0,0
					C0,110.1,1.1,109,2.5,109z"/>
			</g>
		</g>
	</g>
</g>
</svg>
