<svg id="组_7531" data-name="组 7531" xmlns="http://www.w3.org/2000/svg" width="32" height="32" viewBox="0 0 32 32">
  <rect id="矩形_1" data-name="矩形 1" width="32" height="32" fill="none"/>
  <g id="left" transform="translate(4.373 0.174)">
    <path id="路径" d="M16.166,2.33,2.929,14.623a1.1,1.1,0,0,0-.078,1.513h0a1.055,1.055,0,0,0,.078.081L16.166,28.51a1.368,1.368,0,0,1,.1,1.887,1.264,1.264,0,0,1-1.826.1L1.2,18.2h0a3.684,3.684,0,0,1-.273-.282A3.832,3.832,0,0,1,1.2,12.636L14.438.342a1.264,1.264,0,0,1,1.826.1,1.368,1.368,0,0,1-.1,1.887Z" transform="translate(0 0)" fill="#2c7ef8"/>
  </g>
</svg>
